<svg width="55" height="68" viewBox="0 0 55 68" fill="none" xmlns="http://www.w3.org/2000/svg">
<path d="M10.224 23.044C11.64 23.044 12.732 23.2 13.5 23.512C14.268 23.8 14.928 24.112 15.48 24.448C15.768 24.616 15.996 24.748 16.164 24.844C16.356 24.916 16.536 24.952 16.704 24.952C16.944 24.952 17.112 24.82 17.208 24.556C17.328 24.292 17.424 23.896 17.496 23.368H18.324C18.3 23.824 18.264 24.376 18.216 25.024C18.192 25.648 18.168 26.476 18.144 27.508C18.144 28.54 18.144 29.896 18.144 31.576H17.316C17.22 30.328 16.932 29.116 16.452 27.94C15.972 26.764 15.288 25.804 14.4 25.06C13.536 24.292 12.468 23.908 11.196 23.908C10.044 23.908 9.096 24.232 8.352 24.88C7.608 25.528 7.236 26.428 7.236 27.58C7.236 28.54 7.476 29.368 7.956 30.064C8.436 30.736 9.132 31.396 10.044 32.044C10.98 32.692 12.108 33.472 13.428 34.384C14.58 35.128 15.612 35.872 16.524 36.616C17.436 37.36 18.168 38.2 18.72 39.136C19.272 40.072 19.548 41.188 19.548 42.484C19.548 44.068 19.128 45.376 18.288 46.408C17.472 47.44 16.392 48.22 15.048 48.748C13.704 49.252 12.228 49.504 10.62 49.504C9.132 49.504 7.944 49.36 7.056 49.072C6.168 48.784 5.424 48.484 4.824 48.172C4.296 47.836 3.888 47.668 3.6 47.668C3.36 47.668 3.18 47.8 3.06 48.064C2.964 48.328 2.88 48.724 2.808 49.252H1.98C2.028 48.676 2.052 48.004 2.052 47.236C2.076 46.468 2.088 45.472 2.088 44.248C2.112 43 2.124 41.428 2.124 39.532H2.952C3.048 41.116 3.312 42.604 3.744 43.996C4.2 45.364 4.884 46.468 5.796 47.308C6.732 48.148 7.968 48.568 9.504 48.568C10.344 48.568 11.088 48.424 11.736 48.136C12.408 47.824 12.948 47.368 13.356 46.768C13.764 46.168 13.968 45.424 13.968 44.536C13.968 43.528 13.728 42.652 13.248 41.908C12.792 41.164 12.156 40.468 11.34 39.82C10.548 39.172 9.624 38.512 8.568 37.84C7.44 37.096 6.384 36.352 5.4 35.608C4.416 34.864 3.624 34.012 3.024 33.052C2.448 32.092 2.16 30.952 2.16 29.632C2.16 28.12 2.532 26.884 3.276 25.924C4.044 24.94 5.04 24.22 6.264 23.764C7.512 23.284 8.832 23.044 10.224 23.044ZM22.2474 23.512C22.8714 23.536 23.6874 23.56 24.6954 23.584C25.7034 23.608 26.7114 23.62 27.7194 23.62C28.8714 23.62 29.9874 23.608 31.0674 23.584C32.1474 23.56 32.9154 23.548 33.3714 23.548C36.3474 23.548 38.5674 24.076 40.0314 25.132C41.5194 26.188 42.2634 27.544 42.2634 29.2C42.2634 30.04 42.0114 30.892 41.5074 31.756C41.0034 32.62 40.2234 33.388 39.1674 34.06C38.1114 34.732 36.7434 35.224 35.0634 35.536V35.608C37.3194 35.776 39.1074 36.184 40.4274 36.832C41.7474 37.48 42.6954 38.26 43.2714 39.172C43.8474 40.084 44.1354 41.032 44.1354 42.016C44.1354 43.528 43.7394 44.8 42.9474 45.832C42.1554 46.864 41.0154 47.656 39.5274 48.208C38.0394 48.736 36.2634 49 34.1994 49C33.6234 49 32.7954 48.988 31.7154 48.964C30.6354 48.916 29.3274 48.892 27.7914 48.892C26.7354 48.892 25.7034 48.904 24.6954 48.928C23.6874 48.928 22.8714 48.952 22.2474 49V48.28C23.0154 48.232 23.5914 48.136 23.9754 47.992C24.3594 47.848 24.6114 47.56 24.7314 47.128C24.8754 46.696 24.9474 46.048 24.9474 45.184V27.328C24.9474 26.44 24.8754 25.792 24.7314 25.384C24.6114 24.952 24.3474 24.664 23.9394 24.52C23.5554 24.352 22.9914 24.256 22.2474 24.232V23.512ZM32.9034 24.232C31.9674 24.232 31.3554 24.436 31.0674 24.844C30.8034 25.252 30.6714 26.08 30.6714 27.328V45.184C30.6714 46.024 30.7314 46.66 30.8514 47.092C30.9954 47.524 31.2354 47.812 31.5714 47.956C31.9314 48.1 32.4594 48.172 33.1554 48.172C34.8834 48.172 36.1434 47.632 36.9354 46.552C37.7514 45.448 38.1594 43.888 38.1594 41.872C38.1594 40.024 37.6914 38.596 36.7554 37.588C35.8434 36.58 34.3194 36.076 32.1834 36.076H29.1234C29.1234 36.076 29.1234 35.98 29.1234 35.788C29.1234 35.572 29.1234 35.464 29.1234 35.464H32.2194C33.3474 35.464 34.2114 35.2 34.8114 34.672C35.4114 34.12 35.8314 33.4 36.0714 32.512C36.3114 31.6 36.4314 30.628 36.4314 29.596C36.4314 27.82 36.1554 26.488 35.6034 25.6C35.0514 24.688 34.1514 24.232 32.9034 24.232Z" fill="white"/>
<path d="M50.0709 43.96C51.0069 43.96 51.7509 44.212 52.3029 44.716C52.8549 45.196 53.1309 45.868 53.1309 46.732C53.1309 47.596 52.8549 48.28 52.3029 48.784C51.7509 49.264 51.0069 49.504 50.0709 49.504C49.1349 49.504 48.3909 49.264 47.8389 48.784C47.2869 48.28 47.0109 47.596 47.0109 46.732C47.0109 45.868 47.2869 45.196 47.8389 44.716C48.3909 44.212 49.1349 43.96 50.0709 43.96Z" fill="#41EAD4"/>
</svg>
